<mxfile host="drawio.corp.amazon.com" modified="2023-10-25T14:57:48.111Z" agent="Mozilla/5.0 (Macintosh; Intel Mac OS X 10_15_7) AppleWebKit/537.36 (KHTML, like Gecko) Chrome/117.0.0.0 Safari/537.36" etag="xLqHdxKIi530kk8G8Tzi" version="21.7.4" type="device">
  <diagram name="Page-1" id="Hq1C-aVrBXttkBqKNE4t">
    <mxGraphModel dx="5546" dy="2616" grid="1" gridSize="10" guides="1" tooltips="1" connect="1" arrows="1" fold="1" page="1" pageScale="1" pageWidth="827" pageHeight="1169" math="0" shadow="0">
      <root>
        <mxCell id="0" />
        <mxCell id="1" parent="0" />
        <mxCell id="6MAF9-xHDWcIfACTSIPo-2" value="ECS Service Connect" style="rounded=0;whiteSpace=wrap;html=1;" vertex="1" parent="1">
          <mxGeometry x="-40" y="630" width="120" height="60" as="geometry" />
        </mxCell>
        <mxCell id="6MAF9-xHDWcIfACTSIPo-3" value="VPC Lattice" style="rounded=0;whiteSpace=wrap;html=1;" vertex="1" parent="1">
          <mxGeometry x="80" y="505" width="120" height="60" as="geometry" />
        </mxCell>
        <mxCell id="6MAF9-xHDWcIfACTSIPo-24" value="&lt;div&gt;Do your application relies on any of these advanced networking features? (TCP/UDP proxy, ingress and egress g&lt;span style=&quot;background-color: initial;&quot;&gt;ateway with URL filtering, header re-writes)&amp;nbsp;&lt;/span&gt;&lt;/div&gt;" style="rhombus;whiteSpace=wrap;html=1;" vertex="1" parent="1">
          <mxGeometry x="1097" y="834.75" width="160" height="110" as="geometry" />
        </mxCell>
        <mxCell id="6MAF9-xHDWcIfACTSIPo-38" value="Do you have application dependencies with your on-prem?" style="rhombus;whiteSpace=wrap;html=1;" vertex="1" parent="1">
          <mxGeometry x="1482" y="830.25" width="150" height="110" as="geometry" />
        </mxCell>
        <mxCell id="6MAF9-xHDWcIfACTSIPo-162" style="edgeStyle=orthogonalEdgeStyle;rounded=0;orthogonalLoop=1;jettySize=auto;html=1;" edge="1" parent="1" source="6MAF9-xHDWcIfACTSIPo-39" target="6MAF9-xHDWcIfACTSIPo-138">
          <mxGeometry relative="1" as="geometry">
            <mxPoint x="1977" y="640.2499999999998" as="targetPoint" />
            <Array as="points">
              <mxPoint x="1687" y="640" />
              <mxPoint x="1650" y="640" />
            </Array>
          </mxGeometry>
        </mxCell>
        <mxCell id="6MAF9-xHDWcIfACTSIPo-39" value="Yes" style="rounded=0;whiteSpace=wrap;html=1;" vertex="1" parent="1">
          <mxGeometry x="1652" y="862.25" width="60" height="20" as="geometry" />
        </mxCell>
        <mxCell id="6MAF9-xHDWcIfACTSIPo-69" style="edgeStyle=orthogonalEdgeStyle;rounded=0;orthogonalLoop=1;jettySize=auto;html=1;exitX=1;exitY=0.5;exitDx=0;exitDy=0;entryX=0;entryY=0.5;entryDx=0;entryDy=0;" edge="1" parent="1" source="6MAF9-xHDWcIfACTSIPo-40" target="6MAF9-xHDWcIfACTSIPo-44">
          <mxGeometry relative="1" as="geometry" />
        </mxCell>
        <mxCell id="6MAF9-xHDWcIfACTSIPo-40" value="No" style="rounded=0;whiteSpace=wrap;html=1;" vertex="1" parent="1">
          <mxGeometry x="1652" y="892.25" width="60" height="20" as="geometry" />
        </mxCell>
        <mxCell id="6MAF9-xHDWcIfACTSIPo-44" value="Do you have application dependencies with other Clouds?&lt;span style=&quot;font-size: medium; text-align: start;&quot;&gt;&lt;/span&gt;" style="rhombus;whiteSpace=wrap;html=1;" vertex="1" parent="1">
          <mxGeometry x="1772" y="830.25" width="150" height="110" as="geometry" />
        </mxCell>
        <mxCell id="6MAF9-xHDWcIfACTSIPo-163" style="edgeStyle=orthogonalEdgeStyle;rounded=0;orthogonalLoop=1;jettySize=auto;html=1;entryX=1;entryY=0.75;entryDx=0;entryDy=0;" edge="1" parent="1" source="6MAF9-xHDWcIfACTSIPo-45" target="6MAF9-xHDWcIfACTSIPo-138">
          <mxGeometry relative="1" as="geometry">
            <mxPoint x="2007" y="685.2499999999998" as="targetPoint" />
          </mxGeometry>
        </mxCell>
        <mxCell id="6MAF9-xHDWcIfACTSIPo-45" value="Yes" style="rounded=0;whiteSpace=wrap;html=1;" vertex="1" parent="1">
          <mxGeometry x="1942" y="862.25" width="60" height="20" as="geometry" />
        </mxCell>
        <mxCell id="6MAF9-xHDWcIfACTSIPo-70" style="edgeStyle=orthogonalEdgeStyle;rounded=0;orthogonalLoop=1;jettySize=auto;html=1;exitX=1;exitY=0.5;exitDx=0;exitDy=0;entryX=0;entryY=0.5;entryDx=0;entryDy=0;" edge="1" parent="1" source="6MAF9-xHDWcIfACTSIPo-46" target="6MAF9-xHDWcIfACTSIPo-48">
          <mxGeometry relative="1" as="geometry" />
        </mxCell>
        <mxCell id="6MAF9-xHDWcIfACTSIPo-46" value="No" style="rounded=0;whiteSpace=wrap;html=1;" vertex="1" parent="1">
          <mxGeometry x="1942" y="892.25" width="60" height="20" as="geometry" />
        </mxCell>
        <mxCell id="6MAF9-xHDWcIfACTSIPo-48" value="Do your applications have dependencies across multiple regions?&lt;span style=&quot;font-size: medium; text-align: start;&quot;&gt;&lt;/span&gt;" style="rhombus;whiteSpace=wrap;html=1;" vertex="1" parent="1">
          <mxGeometry x="2042" y="830.25" width="150" height="110" as="geometry" />
        </mxCell>
        <mxCell id="6MAF9-xHDWcIfACTSIPo-164" style="edgeStyle=orthogonalEdgeStyle;rounded=0;orthogonalLoop=1;jettySize=auto;html=1;entryX=1;entryY=0.25;entryDx=0;entryDy=0;" edge="1" parent="1" source="6MAF9-xHDWcIfACTSIPo-49" target="6MAF9-xHDWcIfACTSIPo-138">
          <mxGeometry relative="1" as="geometry">
            <mxPoint x="2097" y="640.2499999999998" as="targetPoint" />
            <Array as="points">
              <mxPoint x="2237" y="520" />
            </Array>
          </mxGeometry>
        </mxCell>
        <mxCell id="6MAF9-xHDWcIfACTSIPo-49" value="Yes" style="rounded=0;whiteSpace=wrap;html=1;" vertex="1" parent="1">
          <mxGeometry x="2212" y="862.25" width="60" height="20" as="geometry" />
        </mxCell>
        <mxCell id="6MAF9-xHDWcIfACTSIPo-172" style="edgeStyle=orthogonalEdgeStyle;rounded=0;orthogonalLoop=1;jettySize=auto;html=1;entryX=0;entryY=0.5;entryDx=0;entryDy=0;" edge="1" parent="1" source="6MAF9-xHDWcIfACTSIPo-50" target="6MAF9-xHDWcIfACTSIPo-157">
          <mxGeometry relative="1" as="geometry" />
        </mxCell>
        <mxCell id="6MAF9-xHDWcIfACTSIPo-50" value="No" style="rounded=0;whiteSpace=wrap;html=1;" vertex="1" parent="1">
          <mxGeometry x="2212" y="892.25" width="60" height="20" as="geometry" />
        </mxCell>
        <mxCell id="6MAF9-xHDWcIfACTSIPo-52" value="Do you have standardized on open-source based application networking solutions such as Istio, and Linkerd?&lt;span style=&quot;font-size: medium; text-align: start;&quot;&gt;&lt;/span&gt;" style="rhombus;whiteSpace=wrap;html=1;" vertex="1" parent="1">
          <mxGeometry x="200" y="840.25" width="150" height="110" as="geometry" />
        </mxCell>
        <mxCell id="6MAF9-xHDWcIfACTSIPo-74" style="edgeStyle=orthogonalEdgeStyle;rounded=0;orthogonalLoop=1;jettySize=auto;html=1;exitX=1;exitY=0.5;exitDx=0;exitDy=0;entryX=0;entryY=0.5;entryDx=0;entryDy=0;" edge="1" parent="1" source="6MAF9-xHDWcIfACTSIPo-53" target="6MAF9-xHDWcIfACTSIPo-56">
          <mxGeometry relative="1" as="geometry" />
        </mxCell>
        <mxCell id="6MAF9-xHDWcIfACTSIPo-53" value="Yes" style="rounded=0;whiteSpace=wrap;html=1;" vertex="1" parent="1">
          <mxGeometry x="370" y="872.25" width="60" height="20" as="geometry" />
        </mxCell>
        <mxCell id="6MAF9-xHDWcIfACTSIPo-170" style="edgeStyle=orthogonalEdgeStyle;rounded=0;orthogonalLoop=1;jettySize=auto;html=1;exitX=0.5;exitY=1;exitDx=0;exitDy=0;entryX=0.5;entryY=1;entryDx=0;entryDy=0;" edge="1" parent="1" source="6MAF9-xHDWcIfACTSIPo-54" target="6MAF9-xHDWcIfACTSIPo-133">
          <mxGeometry relative="1" as="geometry">
            <Array as="points">
              <mxPoint x="400" y="1000" />
              <mxPoint x="842" y="1000" />
            </Array>
          </mxGeometry>
        </mxCell>
        <mxCell id="6MAF9-xHDWcIfACTSIPo-54" value="No" style="rounded=0;whiteSpace=wrap;html=1;" vertex="1" parent="1">
          <mxGeometry x="370" y="902.25" width="60" height="20" as="geometry" />
        </mxCell>
        <mxCell id="6MAF9-xHDWcIfACTSIPo-56" value="Do you have any specific questions on a Service Mesh solution that you&#39;re using?" style="rhombus;whiteSpace=wrap;html=1;" vertex="1" parent="1">
          <mxGeometry x="470" y="840.25" width="150" height="110" as="geometry" />
        </mxCell>
        <mxCell id="6MAF9-xHDWcIfACTSIPo-168" style="edgeStyle=orthogonalEdgeStyle;rounded=0;orthogonalLoop=1;jettySize=auto;html=1;exitX=0.5;exitY=0;exitDx=0;exitDy=0;" edge="1" parent="1" source="6MAF9-xHDWcIfACTSIPo-57" target="6MAF9-xHDWcIfACTSIPo-167">
          <mxGeometry relative="1" as="geometry" />
        </mxCell>
        <mxCell id="6MAF9-xHDWcIfACTSIPo-57" value="Yes" style="rounded=0;whiteSpace=wrap;html=1;" vertex="1" parent="1">
          <mxGeometry x="640" y="872.25" width="60" height="20" as="geometry" />
        </mxCell>
        <mxCell id="6MAF9-xHDWcIfACTSIPo-171" style="edgeStyle=orthogonalEdgeStyle;rounded=0;orthogonalLoop=1;jettySize=auto;html=1;exitX=1;exitY=0.5;exitDx=0;exitDy=0;entryX=0;entryY=0.5;entryDx=0;entryDy=0;" edge="1" parent="1" source="6MAF9-xHDWcIfACTSIPo-58" target="6MAF9-xHDWcIfACTSIPo-133">
          <mxGeometry relative="1" as="geometry" />
        </mxCell>
        <mxCell id="6MAF9-xHDWcIfACTSIPo-58" value="No" style="rounded=0;whiteSpace=wrap;html=1;" vertex="1" parent="1">
          <mxGeometry x="640" y="902.25" width="60" height="20" as="geometry" />
        </mxCell>
        <mxCell id="6MAF9-xHDWcIfACTSIPo-79" value="Is your customer using AppMesh?" style="rhombus;whiteSpace=wrap;html=1;" vertex="1" parent="1">
          <mxGeometry x="-890" y="800" width="150" height="110" as="geometry" />
        </mxCell>
        <mxCell id="6MAF9-xHDWcIfACTSIPo-86" style="edgeStyle=orthogonalEdgeStyle;rounded=0;orthogonalLoop=1;jettySize=auto;html=1;entryX=0;entryY=0.5;entryDx=0;entryDy=0;" edge="1" parent="1" source="6MAF9-xHDWcIfACTSIPo-80" target="6MAF9-xHDWcIfACTSIPo-85">
          <mxGeometry relative="1" as="geometry">
            <Array as="points">
              <mxPoint x="-620" y="840" />
              <mxPoint x="-620" y="475" />
            </Array>
          </mxGeometry>
        </mxCell>
        <mxCell id="6MAF9-xHDWcIfACTSIPo-80" value="Yes" style="rounded=0;whiteSpace=wrap;html=1;" vertex="1" parent="1">
          <mxGeometry x="-720" y="830" width="60" height="20" as="geometry" />
        </mxCell>
        <mxCell id="6MAF9-xHDWcIfACTSIPo-103" style="edgeStyle=orthogonalEdgeStyle;rounded=0;orthogonalLoop=1;jettySize=auto;html=1;exitX=1;exitY=0.5;exitDx=0;exitDy=0;entryX=0;entryY=0.5;entryDx=0;entryDy=0;" edge="1" parent="1" source="6MAF9-xHDWcIfACTSIPo-81" target="6MAF9-xHDWcIfACTSIPo-95">
          <mxGeometry relative="1" as="geometry" />
        </mxCell>
        <mxCell id="6MAF9-xHDWcIfACTSIPo-81" value="No" style="rounded=0;whiteSpace=wrap;html=1;" vertex="1" parent="1">
          <mxGeometry x="-720" y="860" width="60" height="20" as="geometry" />
        </mxCell>
        <mxCell id="6MAF9-xHDWcIfACTSIPo-85" value="Talk to PMs" style="rounded=0;whiteSpace=wrap;html=1;" vertex="1" parent="1">
          <mxGeometry x="-860" y="445" width="120" height="60" as="geometry" />
        </mxCell>
        <mxCell id="6MAF9-xHDWcIfACTSIPo-95" value="Is your customer wants to connect workloads on more than one compute option? (ex: ECS, EC2, EKS, Fargate, Lambda)" style="rhombus;whiteSpace=wrap;html=1;" vertex="1" parent="1">
          <mxGeometry x="-580" y="802" width="150" height="110" as="geometry" />
        </mxCell>
        <mxCell id="6MAF9-xHDWcIfACTSIPo-105" style="edgeStyle=orthogonalEdgeStyle;rounded=0;orthogonalLoop=1;jettySize=auto;html=1;exitX=0.5;exitY=0;exitDx=0;exitDy=0;entryX=0;entryY=0.5;entryDx=0;entryDy=0;" edge="1" parent="1" source="6MAF9-xHDWcIfACTSIPo-101" target="6MAF9-xHDWcIfACTSIPo-3">
          <mxGeometry relative="1" as="geometry">
            <Array as="points">
              <mxPoint x="-380" y="670" />
              <mxPoint x="-220" y="670" />
              <mxPoint x="-220" y="540" />
            </Array>
          </mxGeometry>
        </mxCell>
        <mxCell id="6MAF9-xHDWcIfACTSIPo-101" value="Yes" style="rounded=0;whiteSpace=wrap;html=1;" vertex="1" parent="1">
          <mxGeometry x="-410" y="834" width="60" height="20" as="geometry" />
        </mxCell>
        <mxCell id="6MAF9-xHDWcIfACTSIPo-106" style="edgeStyle=orthogonalEdgeStyle;rounded=0;orthogonalLoop=1;jettySize=auto;html=1;exitX=1;exitY=0.5;exitDx=0;exitDy=0;entryX=0;entryY=0.5;entryDx=0;entryDy=0;" edge="1" parent="1" source="6MAF9-xHDWcIfACTSIPo-102">
          <mxGeometry relative="1" as="geometry">
            <mxPoint x="-240" y="865" as="targetPoint" />
          </mxGeometry>
        </mxCell>
        <mxCell id="6MAF9-xHDWcIfACTSIPo-102" value="No" style="rounded=0;whiteSpace=wrap;html=1;" vertex="1" parent="1">
          <mxGeometry x="-410" y="864" width="60" height="20" as="geometry" />
        </mxCell>
        <mxCell id="6MAF9-xHDWcIfACTSIPo-122" value="Please, refer to guidance on traditional workloads" style="rounded=0;whiteSpace=wrap;html=1;" vertex="1" parent="1">
          <mxGeometry x="60" y="1022" width="120" height="60" as="geometry" />
        </mxCell>
        <mxCell id="6MAF9-xHDWcIfACTSIPo-125" value="What AWS compute platform do you utilize today?" style="rhombus;whiteSpace=wrap;html=1;" vertex="1" parent="1">
          <mxGeometry x="-240" y="811.5" width="150" height="110" as="geometry" />
        </mxCell>
        <mxCell id="6MAF9-xHDWcIfACTSIPo-130" style="edgeStyle=orthogonalEdgeStyle;rounded=0;orthogonalLoop=1;jettySize=auto;html=1;entryX=0.5;entryY=1;entryDx=0;entryDy=0;" edge="1" parent="1" source="6MAF9-xHDWcIfACTSIPo-126" target="6MAF9-xHDWcIfACTSIPo-2">
          <mxGeometry relative="1" as="geometry" />
        </mxCell>
        <mxCell id="6MAF9-xHDWcIfACTSIPo-126" value="ECS" style="rounded=0;whiteSpace=wrap;html=1;" vertex="1" parent="1">
          <mxGeometry x="-60" y="816.5" width="60" height="20" as="geometry" />
        </mxCell>
        <mxCell id="6MAF9-xHDWcIfACTSIPo-131" style="edgeStyle=orthogonalEdgeStyle;rounded=0;orthogonalLoop=1;jettySize=auto;html=1;entryX=0.5;entryY=1;entryDx=0;entryDy=0;" edge="1" parent="1" source="6MAF9-xHDWcIfACTSIPo-127" target="6MAF9-xHDWcIfACTSIPo-3">
          <mxGeometry relative="1" as="geometry" />
        </mxCell>
        <mxCell id="6MAF9-xHDWcIfACTSIPo-127" value="Lambda" style="rounded=0;whiteSpace=wrap;html=1;" vertex="1" parent="1">
          <mxGeometry x="-60" y="846.5" width="60" height="20" as="geometry" />
        </mxCell>
        <mxCell id="6MAF9-xHDWcIfACTSIPo-166" style="edgeStyle=orthogonalEdgeStyle;rounded=0;orthogonalLoop=1;jettySize=auto;html=1;exitX=1;exitY=0.5;exitDx=0;exitDy=0;entryX=0;entryY=0.5;entryDx=0;entryDy=0;" edge="1" parent="1" source="6MAF9-xHDWcIfACTSIPo-128" target="6MAF9-xHDWcIfACTSIPo-52">
          <mxGeometry relative="1" as="geometry" />
        </mxCell>
        <mxCell id="6MAF9-xHDWcIfACTSIPo-128" value="EKS/k8s" style="rounded=0;whiteSpace=wrap;html=1;" vertex="1" parent="1">
          <mxGeometry x="-60" y="879.5" width="60" height="20" as="geometry" />
        </mxCell>
        <mxCell id="6MAF9-xHDWcIfACTSIPo-132" style="edgeStyle=orthogonalEdgeStyle;rounded=0;orthogonalLoop=1;jettySize=auto;html=1;entryX=0;entryY=0.5;entryDx=0;entryDy=0;" edge="1" parent="1" source="6MAF9-xHDWcIfACTSIPo-129" target="6MAF9-xHDWcIfACTSIPo-122">
          <mxGeometry relative="1" as="geometry" />
        </mxCell>
        <mxCell id="6MAF9-xHDWcIfACTSIPo-129" value="EC2" style="rounded=0;whiteSpace=wrap;html=1;" vertex="1" parent="1">
          <mxGeometry x="-60" y="916.5" width="60" height="20" as="geometry" />
        </mxCell>
        <mxCell id="6MAF9-xHDWcIfACTSIPo-133" value="Does your application has major components that utilize UDP?" style="rhombus;whiteSpace=wrap;html=1;" vertex="1" parent="1">
          <mxGeometry x="767" y="840.25" width="150" height="110" as="geometry" />
        </mxCell>
        <mxCell id="6MAF9-xHDWcIfACTSIPo-139" style="edgeStyle=orthogonalEdgeStyle;rounded=0;orthogonalLoop=1;jettySize=auto;html=1;exitX=0.5;exitY=0;exitDx=0;exitDy=0;entryX=0;entryY=0.5;entryDx=0;entryDy=0;" edge="1" parent="1" source="6MAF9-xHDWcIfACTSIPo-134" target="6MAF9-xHDWcIfACTSIPo-138">
          <mxGeometry relative="1" as="geometry" />
        </mxCell>
        <mxCell id="6MAF9-xHDWcIfACTSIPo-134" value="Yes" style="rounded=0;whiteSpace=wrap;html=1;" vertex="1" parent="1">
          <mxGeometry x="937" y="872.25" width="60" height="20" as="geometry" />
        </mxCell>
        <mxCell id="6MAF9-xHDWcIfACTSIPo-140" style="edgeStyle=orthogonalEdgeStyle;rounded=0;orthogonalLoop=1;jettySize=auto;html=1;exitX=1;exitY=0.5;exitDx=0;exitDy=0;entryX=0;entryY=0.5;entryDx=0;entryDy=0;" edge="1" parent="1" source="6MAF9-xHDWcIfACTSIPo-135" target="6MAF9-xHDWcIfACTSIPo-24">
          <mxGeometry relative="1" as="geometry">
            <mxPoint x="1062.151515151515" y="895.3611111111113" as="targetPoint" />
          </mxGeometry>
        </mxCell>
        <mxCell id="6MAF9-xHDWcIfACTSIPo-135" value="No" style="rounded=0;whiteSpace=wrap;html=1;" vertex="1" parent="1">
          <mxGeometry x="937" y="902.25" width="60" height="20" as="geometry" />
        </mxCell>
        <mxCell id="6MAF9-xHDWcIfACTSIPo-138" value="3rd party Service Mesh. Recommend Partner Service Mesh solution + SpecReq" style="rounded=0;whiteSpace=wrap;html=1;" vertex="1" parent="1">
          <mxGeometry x="1590" y="525" width="120" height="60" as="geometry" />
        </mxCell>
        <mxCell id="6MAF9-xHDWcIfACTSIPo-143" style="edgeStyle=orthogonalEdgeStyle;rounded=0;orthogonalLoop=1;jettySize=auto;html=1;entryX=0.25;entryY=1;entryDx=0;entryDy=0;" edge="1" parent="1" source="6MAF9-xHDWcIfACTSIPo-141" target="6MAF9-xHDWcIfACTSIPo-138">
          <mxGeometry relative="1" as="geometry">
            <Array as="points">
              <mxPoint x="1317" y="640" />
              <mxPoint x="1620" y="640" />
            </Array>
          </mxGeometry>
        </mxCell>
        <mxCell id="6MAF9-xHDWcIfACTSIPo-141" value="Yes" style="rounded=0;whiteSpace=wrap;html=1;" vertex="1" parent="1">
          <mxGeometry x="1287" y="869.25" width="60" height="20" as="geometry" />
        </mxCell>
        <mxCell id="6MAF9-xHDWcIfACTSIPo-145" style="edgeStyle=orthogonalEdgeStyle;rounded=0;orthogonalLoop=1;jettySize=auto;html=1;exitX=1;exitY=0.5;exitDx=0;exitDy=0;entryX=0;entryY=0.5;entryDx=0;entryDy=0;" edge="1" parent="1" source="6MAF9-xHDWcIfACTSIPo-142" target="6MAF9-xHDWcIfACTSIPo-38">
          <mxGeometry relative="1" as="geometry">
            <mxPoint x="1427" y="889.75" as="targetPoint" />
          </mxGeometry>
        </mxCell>
        <mxCell id="6MAF9-xHDWcIfACTSIPo-142" value="No" style="rounded=0;whiteSpace=wrap;html=1;" vertex="1" parent="1">
          <mxGeometry x="1287" y="899.25" width="60" height="20" as="geometry" />
        </mxCell>
        <mxCell id="6MAF9-xHDWcIfACTSIPo-157" value="Do you need Ferature123? (checkpoint)" style="rhombus;whiteSpace=wrap;html=1;" vertex="1" parent="1">
          <mxGeometry x="2380" y="850" width="160" height="105.25" as="geometry" />
        </mxCell>
        <mxCell id="6MAF9-xHDWcIfACTSIPo-173" style="edgeStyle=orthogonalEdgeStyle;rounded=0;orthogonalLoop=1;jettySize=auto;html=1;entryX=0.5;entryY=0;entryDx=0;entryDy=0;" edge="1" parent="1" source="6MAF9-xHDWcIfACTSIPo-158" target="6MAF9-xHDWcIfACTSIPo-3">
          <mxGeometry relative="1" as="geometry">
            <Array as="points">
              <mxPoint x="2590" y="370" />
              <mxPoint x="140" y="370" />
            </Array>
          </mxGeometry>
        </mxCell>
        <mxCell id="6MAF9-xHDWcIfACTSIPo-158" value="Yes" style="rounded=0;whiteSpace=wrap;html=1;" vertex="1" parent="1">
          <mxGeometry x="2549" y="860.25" width="60" height="20" as="geometry" />
        </mxCell>
        <mxCell id="6MAF9-xHDWcIfACTSIPo-159" style="edgeStyle=orthogonalEdgeStyle;rounded=0;orthogonalLoop=1;jettySize=auto;html=1;exitX=0.5;exitY=1;exitDx=0;exitDy=0;" edge="1" parent="1" source="6MAF9-xHDWcIfACTSIPo-160" target="6MAF9-xHDWcIfACTSIPo-161">
          <mxGeometry relative="1" as="geometry" />
        </mxCell>
        <mxCell id="6MAF9-xHDWcIfACTSIPo-160" value="No" style="rounded=0;whiteSpace=wrap;html=1;" vertex="1" parent="1">
          <mxGeometry x="2549" y="890.25" width="60" height="20" as="geometry" />
        </mxCell>
        <mxCell id="6MAF9-xHDWcIfACTSIPo-161" value="Load balancer Controller docs" style="rounded=0;whiteSpace=wrap;html=1;" vertex="1" parent="1">
          <mxGeometry x="2519" y="968.25" width="120" height="60" as="geometry" />
        </mxCell>
        <mxCell id="6MAF9-xHDWcIfACTSIPo-167" value="Open a SpecReq + questionnaire" style="rounded=0;whiteSpace=wrap;html=1;" vertex="1" parent="1">
          <mxGeometry x="610" y="630" width="120" height="60" as="geometry" />
        </mxCell>
      </root>
    </mxGraphModel>
  </diagram>
</mxfile>
